<?xml version="1.0" encoding="UTF-8" standalone="no"?>
<!-- Created with Inkscape (http://www.inkscape.org/) -->

<svg
   xmlns:dc="http://purl.org/dc/elements/1.1/"
   xmlns:cc="http://creativecommons.org/ns#"
   xmlns:rdf="http://www.w3.org/1999/02/22-rdf-syntax-ns#"
   xmlns:svg="http://www.w3.org/2000/svg"
   xmlns="http://www.w3.org/2000/svg"
   xmlns:sodipodi="http://sodipodi.sourceforge.net/DTD/sodipodi-0.dtd"
   xmlns:inkscape="http://www.inkscape.org/namespaces/inkscape"
   version="1.1"
   id="svg2"
   xml:space="preserve"
   width="549.14227"
   height="529.17145"
   viewBox="0 0 549.14227 529.17144"
   sodipodi:docname="car.svg"
   inkscape:version="0.92.4 (unknown)"><metadata
     id="metadata8"><rdf:RDF><cc:Work
         rdf:about=""><dc:format>image/svg+xml</dc:format><dc:type
           rdf:resource="http://purl.org/dc/dcmitype/StillImage" /><dc:title></dc:title></cc:Work></rdf:RDF></metadata><defs
     id="defs6"><clipPath
       clipPathUnits="userSpaceOnUse"
       id="clipPath2552"><path
         d="m 46333.9,23352.9 h -1.9 l 1.2,0.7 c 0.3,-0.2 0.5,-0.4 0.7,-0.7"
         id="path2550"
         inkscape:connector-curvature="0" /></clipPath><clipPath
       clipPathUnits="userSpaceOnUse"
       id="clipPath3530"><path
         d="m 21370.4,9178.7 c 15.7,17.7 38,32.2 70,36.3 l 1062.2,0.4 -0.5,-0.8 h -1052.6 c -30.2,0 -58.2,-13.6 -79.1,-35.9"
         id="path3528"
         inkscape:connector-curvature="0" /></clipPath></defs><sodipodi:namedview
     pagecolor="#ffffff"
     bordercolor="#666666"
     borderopacity="1"
     objecttolerance="10"
     gridtolerance="10"
     guidetolerance="10"
     inkscape:pageopacity="0"
     inkscape:pageshadow="2"
     inkscape:window-width="1863"
     inkscape:window-height="1056"
     id="namedview4"
     showgrid="false"
     fit-margin-top="0"
     fit-margin-left="0"
     fit-margin-right="0"
     fit-margin-bottom="0"
     inkscape:zoom="0.20025265"
     inkscape:cx="930.79103"
     inkscape:cy="979.2068"
     inkscape:window-x="57"
     inkscape:window-y="24"
     inkscape:window-maximized="1"
     inkscape:current-layer="g10" /><g
     id="g10"
     inkscape:groupmode="layer"
     inkscape:label="ink_ext_XXXXXX"
     transform="matrix(1.3333333,0,0,-1.3333333,-7200.4992,-2017.0222)"><g
       transform="matrix(0.306748,0,0,0.306748,3474.6442,-5870.6791)"
       id="g14"><path
         inkscape:connector-curvature="0"
         id="path16"
         style="fill:#ffffff;fill-opacity:1;fill-rule:nonzero;stroke:none"
         d="M 16300,0 H 0 V 16300 H 16300 V 0" /></g><g
       transform="matrix(0.286688,0,0,0.286688,2574.8433,-4863.2018)"
       id="g62"><path
         inkscape:connector-curvature="0"
         id="path64"
         style="fill:#f1fbfe;fill-opacity:1;fill-rule:nonzero;stroke:none"
         d="m 1621.87,16272.3 c 12.51,-17.1 16.12,-34.3 8.06,-38.2 -8.06,-4 -24.73,6.6 -37.24,23.7 -12.51,17.1 -16.11,34.2 -8.06,38.2 8.06,4 24.73,-6.6 37.24,-23.7" /></g><g
       id="g12801"
       transform="translate(1078.6375,-1655.4089)"><g
         id="g12774"><g
           id="g12768"
           transform="matrix(1,0,0,0.96362578,22.471614,-12.856688)"><g
             transform="matrix(0.1,0,0,0.1,3744.3035,-5489.5217)"
             id="g5119"><g
               id="g5096"><path
                 d="m 8240.2011,52490.047 c -1082.2762,-348.671 -2242.1862,246.027 -2590.8381,1328.246 -348.663,1082.247 245.96,2242.198 1328.2352,2590.869 1082.2761,348.672 2242.1866,-246.03 2590.8485,-1328.277 348.653,-1082.219 -245.9705,-2242.167 -1328.2456,-2590.838"
                 style="fill:#7ac02b;fill-opacity:1;fill-rule:nonzero;stroke:none;stroke-width:2.99146008"
                 id="path20"
                 inkscape:connector-curvature="0" /></g></g></g></g><g
         transform="matrix(0.285246,0,0,0.285246,4189.3996,-4716.1315)"
         id="g22"><path
           inkscape:connector-curvature="0"
           id="path24"
           style="fill:#373e4b;fill-opacity:1;fill-rule:nonzero;stroke:none"
           d="m 1433.78,16226.3 c 0,-40.7 40.66,-73.7 90.82,-73.7 50.15,0 90.81,33 90.81,73.7 0,40.7 -40.66,73.7 -90.81,73.7 -50.16,0 -90.82,-33 -90.82,-73.7" /></g><g
         transform="matrix(0.284775,0,0,0.284775,4188.8114,-4715.4174)"
         id="g26"><path
           inkscape:connector-curvature="0"
           id="path28"
           style="fill:#acd51c;fill-opacity:1;fill-rule:nonzero;stroke:none"
           d="m 1469.4,16253.2 c 0,-25.9 25.84,-46.9 57.72,-46.9 31.87,0 57.72,21 57.72,46.9 0,25.8 -25.85,46.8 -57.72,46.8 -31.88,0 -57.72,-21 -57.72,-46.8" /></g><g
         transform="matrix(0.285167,0,0,0.285167,4187.4351,-4713.0596)"
         id="g30"><path
           inkscape:connector-curvature="0"
           id="path32"
           style="fill:#373e4b;fill-opacity:1;fill-rule:nonzero;stroke:none"
           d="m 741.633,16226.3 c 0,-40.7 40.674,-73.7 90.842,-73.7 50.166,0 90.837,33 90.837,73.7 0,40.7 -40.671,73.7 -90.837,73.7 -50.168,0 -90.842,-33 -90.842,-73.7" /></g><g
         transform="matrix(0.284626,0,0,0.284626,4187.454,-4715.0296)"
         id="g34"><path
           inkscape:connector-curvature="0"
           id="path36"
           style="fill:#acd51c;fill-opacity:1;fill-rule:nonzero;stroke:none"
           d="m 781.196,16257.1 c 0,-23.7 23.659,-42.9 52.86,-42.9 29.188,0 52.854,19.2 52.854,42.9 0,23.7 -23.666,42.9 -52.854,42.9 -29.201,0 -52.86,-19.2 -52.86,-42.9" /></g><g
         transform="matrix(0.290425,0,0,0.290425,4189.9905,-4719.0089)"
         id="g38"><path
           inkscape:connector-curvature="0"
           id="path40"
           style="fill:#373e4b;fill-opacity:1;fill-rule:nonzero;stroke:none"
           d="m 1546.59,16115.5 c -58.57,14.1 -167.9,25.8 -181.11,28.2 -3.16,0.5 -5.46,2.7 -5.95,3.2 -9.03,10.7 -96.21,118.3 -116.09,125.9 -71.67,27.2 -365.475,24.1 -411.329,-4.6 -43.347,-27.1 -94.011,-112.2 -106.003,-131.7 -0.565,-0.9 -28.81,-16.6 -29.991,-17.4 -7.847,-5.5 -45.243,-31.2 -52.061,-62.2 0,0 -6.549,-75.3 -4.205,-94.8 1.567,-13 27.481,-36.5 42.921,-37.9 h 0.047 l 9.7,0.1 0.382,0.4 c -0.148,2 -0.234,4 -0.234,6 0,7.6 0.982,15 2.979,22.1 1.47,5.1 3.488,10.2 5.753,15 v 0 c 18.108,36.1 61.865,61.6 112.876,61.6 42.965,0 80.809,-18.1 102.416,-45.4 l 0.041,-0.1 c 2.833,-2.5 5.627,-5.2 8.366,-8.1 l 0.086,-0.2 8.182,-40.1 0.062,-0.2 c 0.503,-0.6 4.88,-6.1 7.531,-4.4 l 0.134,0.2 c 0.195,0.5 1.139,2.6 2.382,2 l 0.162,-0.2 c 3.575,-12.2 51.094,-17.7 71.023,-17.7 l 301.61,0.5 c 18.5,0 41.19,3.6 48.01,13.4 1.21,1.8 1.55,2.7 2.68,4.3 0.51,0.8 1.48,3.1 1.56,3.2 h 0.03 l 7,16.7 0.03,0.1 3.64,5.6 0.03,0.1 c 0.5,1.4 1.39,4.5 1.95,5.8 16.51,38.6 62.96,67 116.2,67 52.95,0 96.85,-28.2 113.52,-66.5 4.54,-10.3 7.33,-21.1 6.34,-32.6 -0.12,-1.5 -0.76,-1.6 -0.07,-1.3 2.95,1.1 6.71,87.7 11.29,105.5 7.76,30.3 -31.27,66.2 -81.89,78.5" /></g><g
         inkscape:transform-center-y="-32.458997"
         inkscape:transform-center-x="4.9936918"
         transform="matrix(0.289627,0,0,0.289627,4195.6084,-4715.2636)"
         id="g42"><path
           inkscape:connector-curvature="0"
           id="path44"
           style="fill:#c8e88f;fill-opacity:1;fill-rule:nonzero;stroke:none"
           d="m 805.913,16188.434 c -7.068,1.5 -6.737,12 -5.19,14.1 0,0 51.169,74.2 84.323,80.8 43.834,8.7 101.802,9.6 103.564,9.7 8.03,0.5 12.23,-1.4 11.379,-13.3 -1.012,-14.2 -10.137,-26.5 -5.624,-78.2 0.17,-1.9 -1.926,-9.2 -12.796,-9.2 -44.174,0 -169.649,-5.1 -175.656,-3.9" /></g><g
         transform="matrix(0.285782,0,0,0.285782,4189.5029,-4719.5758)"
         id="g46"><path
           inkscape:connector-curvature="0"
           id="path48"
           style="fill:#f1fbfe;fill-opacity:1;fill-rule:nonzero;stroke:none"
           d="m 1392.41,16198.1 c -2.24,56.5 58.81,101.9 128.91,101.9 69.9,0 126.76,-45.1 128.9,-101.4 l 0.06,-0.5 -0.02,-0.2 0.02,-0.4 h -0.07 c -0.4,-6.7 -7.16,-12 -15.5,-12 -8.6,0 -15.57,5.6 -15.57,12.6 l -0.16,2.5 c -2.28,42.3 -44.96,74.3 -97.66,74.3 -52.64,0 -95.53,-33.7 -97.91,-75.9 l 0.11,-0.9 c 0,-7 -6.97,-12.6 -15.57,-12.6 -8.35,0 -15.09,5.3 -15.49,12 0,0 -0.04,0.3 -0.05,0.6" /></g><g
         transform="matrix(0.285725,0,0,0.285725,4186.5527,-4719.3444)"
         id="g50"><path
           inkscape:connector-curvature="0"
           id="path52"
           style="fill:#f1fbfe;fill-opacity:1;fill-rule:nonzero;stroke:none"
           d="m 702.943,16198.1 c -2.237,56.5 58.822,101.9 128.935,101.9 69.921,0 126.794,-45.1 128.936,-101.4 l 0.063,-0.5 -0.025,-0.2 0.025,-0.5 h -0.074 c -0.41,-6.6 -7.161,-12 -15.507,-12 -8.607,0 -15.575,5.7 -15.575,12.7 l -0.158,2.5 c -2.278,42.3 -44.97,74.3 -97.685,74.3 -52.645,0 -95.543,-33.7 -97.923,-75.9 l 0.112,-0.9 c 0,-7 -6.972,-12.7 -15.581,-12.7 -8.344,0 -15.088,5.4 -15.494,12 0,0 -0.035,0.4 -0.049,0.7" /></g><g
         transform="matrix(0.287177,0,0,0.287177,4189.8613,-4715.2235)"
         id="g54"><path
           inkscape:connector-curvature="0"
           id="path56"
           style="fill:#f1fbfe;fill-opacity:1;fill-rule:nonzero;stroke:none"
           d="m 1137.45,16275.1 c 0,-13.7 -18.13,-24.9 -40.49,-24.9 -22.36,0 -40.49,11.2 -40.49,24.9 0,13.8 18.13,24.9 40.49,24.9 22.36,0 40.49,-11.1 40.49,-24.9" /></g><g
         transform="matrix(0.289752,0,0,0.289752,4189.0542,-4717.1362)"
         id="g58"><path
           inkscape:connector-curvature="0"
           id="path60"
           style="fill:#c8e88f;fill-opacity:1;fill-rule:nonzero;stroke:none"
           d="m 1054.27,16287.8 c 1.09,11.1 19.27,12.2 21.45,12.2 2.18,0 90.71,-3.1 132.17,-9.3 41.46,-6.2 112.93,-100 112.93,-100 1.91,-2.6 10.48,-16.1 1.75,-17.9 -8.73,-1.8 -260.19,6.8 -275.08,13.9 -8.58,4.1 5.69,90.1 6.78,101.1" /></g></g></g></svg>