<svg height="464pt" viewBox="0 -20 464 464" width="464pt" xmlns="http://www.w3.org/2000/svg"><path d="m464 352h-192l32-192h104l56 72zm0 0" fill="#ceac9a"/><path d="m0 352h464v32h-464zm0 0" fill="#ffd782"/><path d="m432 352h-160l9.335938-56h150.664062zm0 0" fill="#b28b79"/><path d="m336 192h56l40 48v24h-112zm0 0" fill="#87cee9"/><path d="m376.246094 222.070312 7.988281-32 15.523437 3.875-7.988281 32zm0 0" fill="#f7f7ed"/><path d="m344.238281 262.070312 7.988281-32.003906 15.523438 3.875-7.988281 32.003906zm0 0" fill="#f7f7ed"/><path d="m304 160-32 192h-272l9.359375-56 2.640625-16 20-120zm0 0" fill="#f98c96"/><path d="m25.335938 200h54.664062l64 32h148l-8 48h-156l-56-32h-54.664062zm0 0" fill="#fff69a"/><path d="m176 192h96v16h-96zm0 0" fill="#dd3e46"/><path d="m144 192h16v16h-16zm0 0" fill="#dd3e46"/><path d="m88 280v16h-78.640625l2.640625-16zm0 0" fill="#dd3e46"/><path d="m232 312h16v16h-16zm0 0" fill="#dd3e46"/><path d="m200 312h16v16h-16zm0 0" fill="#dd3e46"/><path d="m96 120h136v16h-136zm0 0" fill="#aabece"/><path d="m64 88h144v16h-144zm0 0" fill="#aabece"/><path d="m112 8h128v16h-128zm0 0" fill="#aabece"/><path d="m72 40h144v16h-144zm0 0" fill="#aabece"/><path d="m400 80c0 2.71875-.160156 5.359375-.398438 8-3.839843 37.839844-33.761718 67.761719-71.601562 71.601562-2.640625.238282-5.28125.398438-8 .398438s-5.359375-.160156-8-.398438c-15.242188-1.507812-29.71875-7.398437-41.679688-16.960937-4.222656-3.289063-8.082031-7.015625-11.519531-11.121094-10.363281-12.332031-16.773437-27.496093-18.402343-43.519531-.238282-2.640625-.398438-5.28125-.398438-8s.160156-5.359375.398438-8c1.542968-15.472656 7.578124-30.15625 17.363281-42.238281 3.359375-4.136719 7.109375-7.941407 11.199219-11.363281 12.210937-10.1875 27.210937-16.460938 43.039062-18 2.640625-.238282 5.28125-.398438 8-.398438s5.359375.160156 8 .398438c15.332031 1.550781 29.886719 7.492187 41.921875 17.121093 16.871094 13.382813 27.582031 33.046875 29.679687 54.480469.238282 2.640625.398438 5.28125.398438 8zm0 0" fill="#87cee9"/><g fill="#394d5c"><path d="m400 80c0 2.71875-.160156 5.359375-.398438 8h-23.601562v-16h23.601562c.238282 2.640625.398438 5.28125.398438 8zm0 0"/><path d="m264 72v16h-23.601562c-.238282-2.640625-.398438-5.28125-.398438-8s.160156-5.359375.398438-8zm0 0"/><path d="m285.679688 34.320312-11.359376 11.359376-16.558593-15.917969c3.359375-4.136719 7.109375-7.941407 11.199219-11.363281zm0 0"/><path d="m381.359375 28.640625-15.679687 17.039063-11.359376-11.359376 15.601563-16.800781c4.175781 3.3125 8.007813 7.039063 11.4375 11.121094zm0 0"/><path d="m285.679688 125.679688-15.359376 16.960937c-4.222656-3.289063-8.082031-7.015625-11.519531-11.121094l15.519531-17.199219zm0 0"/><path d="m381.359375 131.359375c-3.429687 4.082031-7.261719 7.808594-11.4375 11.121094l-15.601563-16.800781 11.359376-11.359376zm0 0"/></g><path d="m346.34375 117.65625-34.34375-34.34375v-43.3125h16v36.6875l29.65625 29.65625zm0 0" fill="#d9176c"/><path d="m328 .398438v23.601562h-16v-23.601562c2.640625-.238282 5.28125-.398438 8-.398438s5.359375.160156 8 .398438zm0 0" fill="#394d5c"/><path d="m328 136v23.601562c-2.640625.238282-5.28125.398438-8 .398438s-5.359375-.160156-8-.398438v-23.601562zm0 0" fill="#394d5c"/><path d="m80 8h16v16h-16zm0 0" fill="#aabece"/><path d="m32 88h16v16h-16zm0 0" fill="#aabece"/><path d="m176 368c0 30.929688-25.070312 56-56 56s-56-25.070312-56-56 25.070312-56 56-56 56 25.070312 56 56zm0 0" fill="#394d5c"/><path d="m144 368c0 13.253906-10.746094 24-24 24s-24-10.746094-24-24 10.746094-24 24-24 24 10.746094 24 24zm0 0" fill="#aabece"/><path d="m408 368c0 30.929688-25.070312 56-56 56s-56-25.070312-56-56 25.070312-56 56-56 56 25.070312 56 56zm0 0" fill="#394d5c"/><path d="m376 368c0 13.253906-10.746094 24-24 24s-24-10.746094-24-24 10.746094-24 24-24 24 10.746094 24 24zm0 0" fill="#aabece"/></svg>