<svg height="464pt" viewBox="0 0 464 464" width="464pt" xmlns="http://www.w3.org/2000/svg"><path d="m0 0h464v368h-464zm0 0" fill="#5a6470"/><path d="m32 32h400v304h-400zm0 0" fill="#cdeef6"/><path d="m224 128 88 87.996094-88 87.996094-87.996094-87.996094zm0 0" fill="#4f83d1"/><path d="m64 416h336v48h-336zm0 0" fill="#5a6470"/><path d="m192 368h80v48h-80zm0 0" fill="#bfbfbf"/><path d="m240 64h32v32h-32zm0 0" fill="#6caade"/><path d="m272 64h32v32h-32zm0 0" fill="#4f83d1"/><path d="m304 64h32v32h-32zm0 0" fill="#6caade"/><path d="m144 64h32v32h-32zm0 0" fill="#6caade"/><path d="m176 64h32v32h-32zm0 0" fill="#4f83d1"/><path d="m32 32h64v272h-64zm0 0" fill="#7d8d9c"/><g fill="#aabece"><path d="m56 256h16v16h-16zm0 0"/><path d="m56 224h16v16h-16zm0 0"/><path d="m56 192h16v16h-16zm0 0"/></g><path d="m32 64h32v32h-32zm0 0" fill="#f9bb4b"/><path d="m64 64h32v32h-32zm0 0" fill="#d3843d"/><path d="m32 32h32v32h-32zm0 0" fill="#d3843d"/><path d="m64 32h32v32h-32zm0 0" fill="#f9bb4b"/><path d="m32 128h32v32h-32zm0 0" fill="#f9bb4b"/><path d="m64 128h32v32h-32zm0 0" fill="#d3843d"/><path d="m32 96h32v32h-32zm0 0" fill="#d3843d"/><path d="m64 96h32v32h-32zm0 0" fill="#f9bb4b"/><path d="m272 216c0 26.507812-21.492188 48-48 48s-48-21.492188-48-48 21.492188-48 48-48 48 21.492188 48 48zm0 0" fill="#cdeef6"/><path d="m368 136h32v32h-32zm0 0" fill="#ffd782"/><path d="m368 272h32v32h-32zm0 0" fill="#ffd782"/><path d="m376 168h16v104h-16zm0 0" fill="#d75745"/><path d="m341.65625 162.34375-18.34375-18.34375h12.6875v-16h-32c-4.417969 0-8 3.582031-8 8v32h16v-12.6875l18.34375 18.34375zm0 0" fill="#7d8d9c"/><path d="m408 112h-16v-40h-24v-16h40zm0 0" fill="#d75745"/><path d="m128 272h16v16h-16zm0 0" fill="#f1c056"/><path d="m152 296h16v16h-16zm0 0" fill="#f1c056"/><path d="m336 192h16v16h-16zm0 0" fill="#cdeef6"/></svg>