<?xml version="1.0" encoding="utf-8"?>
<!-- Generated by IcoMoon.io -->
<!DOCTYPE svg PUBLIC "-//W3C//DTD SVG 1.1//EN" "http://www.w3.org/Graphics/SVG/1.1/DTD/svg11.dtd">
<svg version="1.1" xmlns="http://www.w3.org/2000/svg" xmlns:xlink="http://www.w3.org/1999/xlink" width="512" height="512" viewBox="0 0 512 512">
<g>
</g>
	<path d="M222.095 105.124h71.568c13.2 0 24.023 10.844 24.023 23.562v52.214h-14.162v-27.269c0-3.308-2.816-6.144-6.082-6.144v0c-3.779 0-6.605 2.826-6.605 6.144v27.269h-64.973v-27.269c0-3.308-2.826-6.144-6.584-6.144v0c-3.308 0-6.124 2.826-6.124 6.144v27.269h-15.544v-52.214c0.010-12.728 10.844-23.562 24.484-23.562v0zM257.874 34.98c16.967 0 30.608 13.66 30.608 30.608 0 16.937-13.639 30.587-30.608 30.587-16.927 0-30.597-13.65-30.597-30.587 0-16.947 13.671-30.608 30.597-30.608z" fill="#000000" />
	<path d="M79.472 225.147h14.1c11.796 0 20.736 9.431 20.736 20.715v42.352l-20.736 67.799h-14.1c-11.305 0-20.715-9.401-20.715-20.685v-89.467c0-11.285 9.421-20.715 20.715-20.715v0zM86.518 157.87c16.025 0 28.733 13.148 28.733 28.692 0 16.005-12.698 28.713-28.733 28.713-16.005 0-28.713-12.708-28.713-28.713 0-15.544 12.708-28.692 28.713-28.692z" fill="#000000" />
	<path d="M417.935 225.147h14.582c11.305 0 20.695 9.431 20.695 20.715v89.467c0 11.284-9.401 20.685-20.695 20.685h-10.824l-24.484-79.555v-30.597c0.010-11.285 9.411-20.715 20.726-20.715v0zM425.442 157.87c15.544 0 28.764 13.148 28.764 28.692 0 16.005-13.22 28.713-28.764 28.713-15.964 0-28.682-12.708-28.682-28.713 0-15.544 12.718-28.692 28.682-28.692z" fill="#000000" />
	<path d="M312.002 375.798c-4.68 0-8.94 3.779-8.94 8.458v14.602h17.418v-14.602c0-4.68-3.738-8.458-8.478-8.458z" fill="#000000" />
	<path d="M205.179 375.798c-4.731 0-8.51 3.779-8.51 8.458v14.602h17.439v-14.602c0-4.68-4.239-8.458-8.929-8.458z" fill="#000000" />
	<path d="M412.918 369.541l-44.144-150.067c-4.905-15.667-13.824-29-30.761-29h-158.679c-16.947 0-26.297 13.333-30.761 29l-44.585 150.067c-4.465 15.678 13.824 29 30.761 29h45.906v-47.882c0-17.019 14.264-31.303 31.652-31.303h92.743c17.357 0 31.181 14.285 31.181 31.303v47.882h45.916c16.937 0 35.236-13.322 30.771-29zM258.683 307.405c-22.303 0-40.13-18.422-40.13-41.001 0-22.538 17.828-40.981 40.13-40.981 21.832 0 39.68 18.442 39.68 40.981 0 22.579-17.838 41.001-39.68 41.001z" fill="#000000" />
	<path d="M175.483 445c0 13.639 8.96 24.955 21.177 29.655v-75.796h-21.177v46.142z" fill="#000000" />
	<path d="M320.481 474.183c11.776-5.161 19.303-16.456 19.303-29.184v-46.142h-19.303v75.326z" fill="#000000" />
	<path d="M214.108 398.858h88.955v78.162h-88.955v-78.162z" fill="#000000" />
</svg>
